<?xml version="1.0" encoding="UTF-8"?>
<svg width="100px" height="100px" viewBox="0 0 100 100" version="1.1" xmlns="http://www.w3.org/2000/svg" xmlns:xlink="http://www.w3.org/1999/xlink">
    <!-- Generator: Sketch 45.2 (43514) - http://www.bohemiancoding.com/sketch -->
    <title>gnocchi</title>
    <desc>Created with Sketch.</desc>
    <defs></defs>
    <g id="Page-1" stroke="none" stroke-width="1" fill="none" fill-rule="evenodd">
        <g id="gnocchi">
            <path d="M50,0 C22.3857625,-1.69088438e-15 3.38176876e-15,22.3857625 0,50 C-3.38176876e-15,77.6142375 22.3857625,100 50,100 C63.2608245,100 75.9785201,94.732158 85.3553391,85.3553391 C94.732158,75.9785201 100,63.2608245 100,50 C100,22.3857625 77.6142375,1.69088438e-15 50,0 Z" id="Mask" fill="#323232" fill-rule="nonzero"></path>
            <g transform="translate(29.000000, 22.000000)">
                <path d="M9.71088209,6.28923049 C6.22282534,8.03294457 4.31997273,10.6824597 4.00232426,14.2377757 C0.960567794,16.3969891 0.275193034,18.8384403 1.94619998,21.5621292 C-0.647160893,25.0380332 -0.648732373,27.9745005 1.94148554,30.3715311 C-0.0752469805,33.8445017 0.528306061,36.750168 3.75214466,39.0885301 C2.71999667,42.4971747 3.54858563,45.2944089 6.23791154,47.4802326 C6.62323841,51.3831601 8.35532354,53.3551578 11.4341669,53.3962258 C13.3184761,55.5652871 17.0473883,56.3316455 22.6209036,55.6953009 C30.9811766,54.740784 36.303779,49.1535444 37.4915035,45.7613479 C39.2063023,44.8027452 39.9964424,42.6405984 39.8619238,39.2749076 C41.5197303,35.9257696 41.5362832,32.1723423 39.9115825,28.0146256 C41.0652583,24.7968634 40.5329457,21.3297597 38.3146447,17.6133145 C37.7208348,14.2897393 36.6705624,11.9931786 35.1638275,10.7236324 C33.5546321,6.60551701 30.9044884,3.63573432 27.2133965,1.81428437 C23.5223045,-0.00716558495 19.8392795,-0.457132659 16.1643214,0.464383146 C12.6473494,2.13622821 10.7718405,3.62861028 10.5377948,4.94152934 L9.71088209,6.28923049 Z" id="Path" fill="#FFCD30"></path>
                <path d="M31.6998922,10.4761644 C25.8965218,7.11131167 19.7819983,5.84867996 13.3563218,6.68826928 C18.69642,7.12074054 21.7327287,7.44090338 22.4652478,7.64875779 C23.197767,7.85661219 26.2759818,8.79908106 31.6998922,10.4761644 Z" id="Path-2" fill="#FBAF3B"></path>
                <path d="M7.40229885,13.9409909 C16.556693,13.8051103 21.3325251,13.8051103 21.7297953,13.9409909 C28.7807112,15.5407575 32.626332,16.5430473 33.2666577,16.9478605 C34.2271462,17.5550804 22.6110812,14.997654 21.095546,15.0237406 C20.0851892,15.0411316 15.5207735,14.6802151 7.40229885,13.9409909 Z" id="Path-3" fill="#FBAF3B"></path>
                <path d="M6.11494253,21.2269777 C15.8679658,20.3287198 25.0000449,20.7225327 33.51118,22.4084163 L6.11494253,21.2269777 Z" id="Path-4" fill="#FBAF3B"></path>
                <path d="M6.59770115,29.4427846 C15.3623683,27.9316496 20.0975515,27.1825775 20.8032507,27.1955684 C21.8617996,27.2150547 33.8047324,27.4550927 35.3045528,27.9659078 L6.59770115,29.4427846 Z" id="Path-5" fill="#FBAF3B"></path>
                <path d="M7.88505747,38.2307736 C16.1916906,36.206498 20.9115781,35.126577 22.0447198,34.9910107 C23.7444325,34.7876612 34.7529634,34.3837908 35.5047593,34.4425642 C36.2565553,34.5013375 22.7566002,35.6149508 21.8240841,36.0454737 C21.2024066,36.3324889 16.5560644,37.0609222 7.88505747,38.2307736 Z" id="Path-6" fill="#FBAF3B"></path>
                <path d="M9.366963,46.759384 C18.6801814,44.513844 23.5595217,43.2963661 24.0049838,43.1069504 C24.6731771,42.8228269 34.9176545,39.9775054 35.6386494,39.6166936 C36.3596444,39.2558818 26.0594402,43.6525682 24.4176545,44.1255837 C23.3231307,44.4409273 18.3062335,45.3188608 9.366963,46.759384 Z" id="Path-7" fill="#FBAF3B"></path>
                <path d="M32.9944774,45.8400682 C27.2927293,47.1707974 23.9779544,48.0331208 23.0501527,48.4270384 C21.6584501,49.0179149 15.0390625,51.9264098 14.7222522,52.3192798 C14.4054418,52.7121498 22.7993445,49.48213 23.9908405,49.1360902 C24.7851712,48.9053969 27.7863835,47.8067229 32.9944774,45.8400682 Z" id="Path-8" fill="#FBAF3B"></path>
            </g>
        </g>
    </g>
</svg>